<?xml version="1.0" encoding="UTF-8" standalone="no"?>
<!-- Created with Inkscape (http://www.inkscape.org/) -->

<svg
   width="286.73013mm"
   height="165.54372mm"
   viewBox="0 0 286.73013 165.54372"
   version="1.1"
   id="svg1"
   xml:space="preserve"
   xmlns:inkscape="http://www.inkscape.org/namespaces/inkscape"
   xmlns:sodipodi="http://sodipodi.sourceforge.net/DTD/sodipodi-0.dtd"
   xmlns="http://www.w3.org/2000/svg"
   xmlns:svg="http://www.w3.org/2000/svg"><sodipodi:namedview
     id="namedview1"
     pagecolor="#505050"
     bordercolor="#ffffff"
     borderopacity="1"
     inkscape:showpageshadow="0"
     inkscape:pageopacity="0"
     inkscape:pagecheckerboard="1"
     inkscape:deskcolor="#505050"
     inkscape:document-units="mm"
     showgrid="false"
     showguides="true"><inkscape:grid
       type="axonomgrid"
       id="grid1"
       units="mm"
       originx="-915.36185"
       originy="108.71519"
       spacingx="0"
       spacingy="1"
       empcolor="#0099e5"
       empopacity="0.30196078"
       color="#0099e5"
       opacity="0.14901961"
       empspacing="5"
       dotted="false"
       gridanglex="30"
       gridanglez="30"
       visible="false" /></sodipodi:namedview><defs
     id="defs1"><inkscape:path-effect
       effect="perspective-envelope"
       up_left_point="328.55396,1.8269514"
       up_right_point="435.62203,1.8269514"
       down_left_point="346.99277,194.73611"
       down_right_point="416.79695,194.73611"
       id="path-effect22"
       is_visible="true"
       lpeversion="1"
       deform_type="envelope_deformation"
       horizontal_mirror="false"
       vertical_mirror="true"
       overflow_perspective="false" /><inkscape:path-effect
       effect="perspective-envelope"
       up_left_point="328.55396,1.8269514"
       up_right_point="435.62203,1.8269514"
       down_left_point="346.99277,194.73611"
       down_right_point="416.79695,194.73611"
       id="path-effect20"
       is_visible="true"
       lpeversion="1"
       deform_type="envelope_deformation"
       horizontal_mirror="false"
       vertical_mirror="true"
       overflow_perspective="false" /><inkscape:path-effect
       effect="perspective-envelope"
       up_left_point="328.55396,1.8269514"
       up_right_point="435.62203,1.8269514"
       down_left_point="346.99277,194.73611"
       down_right_point="416.79695,194.73611"
       id="path-effect18"
       is_visible="true"
       lpeversion="1"
       deform_type="envelope_deformation"
       horizontal_mirror="false"
       vertical_mirror="true"
       overflow_perspective="false" /><inkscape:path-effect
       effect="perspective-envelope"
       up_left_point="328.55396,1.8269514"
       up_right_point="435.62203,1.8269514"
       down_left_point="346.99277,194.73611"
       down_right_point="416.79695,194.73611"
       id="path-effect16"
       is_visible="true"
       lpeversion="1"
       deform_type="envelope_deformation"
       horizontal_mirror="false"
       vertical_mirror="true"
       overflow_perspective="false" /><inkscape:path-effect
       effect="perspective-envelope"
       up_left_point="328.55396,1.8269514"
       up_right_point="435.62203,1.8269514"
       down_left_point="346.99277,194.73611"
       down_right_point="416.79695,194.73611"
       id="path-effect14"
       is_visible="true"
       lpeversion="1"
       deform_type="envelope_deformation"
       horizontal_mirror="false"
       vertical_mirror="true"
       overflow_perspective="false" /><inkscape:path-effect
       effect="perspective-envelope"
       up_left_point="328.55396,1.8269514"
       up_right_point="435.62203,1.8269514"
       down_left_point="346.99277,194.73611"
       down_right_point="416.79695,194.73611"
       id="path-effect29"
       is_visible="true"
       lpeversion="1"
       deform_type="envelope_deformation"
       horizontal_mirror="false"
       vertical_mirror="true"
       overflow_perspective="false" /></defs><g
     inkscape:label="Ebene 1"
     inkscape:groupmode="layer"
     id="layer1"
     transform="translate(-242.18949,28.764228)"><rect
       style="fill:#b2b2b2;fill-opacity:1;stroke:none;stroke-width:0.519651;stroke-dasharray:none;stroke-opacity:1"
       id="rect22"
       width="191.9473"
       height="139.14015"
       x="72.618744"
       y="207.03758"
       transform="matrix(0.8660254,-0.5,0.8660254,0.5,0,0)"
       inkscape:export-filename="Layout.png"
       inkscape:export-xdpi="96"
       inkscape:export-ydpi="96" /><g
       id="g22"
       transform="translate(203.68496,32.15556)"><rect
         style="fill:none;fill-opacity:1;stroke:#000000;stroke-width:0.825146;stroke-dasharray:none;stroke-opacity:1"
         id="rect12"
         width="118.13145"
         height="66.448936"
         x="64.974564"
         y="17.468765" /><g
         id="layer2"
         inkscape:label="Zeichnung"
         transform="matrix(0.06241519,0,0,0.06241519,100.14771,44.796355)"><path
           style="fill:#000000;fill-opacity:1;stroke:none;stroke-width:0.520999"
           d="m 365.65667,1.8269514 1.66962,7.6146829 c 0,0 7.62318,-1.7998343 11.56013,-2.2151801 3.94292,-0.4153468 10.59894,-1.2460395 12.67849,-1.2460395 2.07956,0 3.10969,0.4153468 4.57504,0 1.46755,-0.4153458 2.29584,-0.2768979 3.78395,-1.2460385 1.49325,-0.9691416 2.35904,-1.7998342 2.35904,-1.7998342 0,0 1.80392,1.9382822 0.0596,4.0150143 -1.73176,2.0767322 -5.12252,4.9841557 -5.12252,4.9841557 0,0 2.86598,0.415347 8.37953,1.246038 5.49659,0.830694 6.64838,2.215181 10.30139,2.630527 3.64737,0.415347 12.05018,0 12.05018,0 0,0 -1.8502,2.630528 -6.78887,3.461219 -4.92359,0.830695 -7.83348,2.076734 -7.83348,2.076734 0,0 1.69879,1.938283 3.42979,3.18432 1.72253,1.24604 2.04623,2.353629 4.98438,3.184323 2.92873,0.830691 10.26902,3.32277 10.26902,3.32277 0,0 -2.81621,0.415346 -5.62802,0.830695 -2.80742,0.415346 -4.81903,0.83069 -4.81903,0.83069 l 6.11234,2.49208 -5.94978,0.553793 c 0,0 2.07435,1.107593 4.13949,2.215181 2.05592,1.10759 5.80442,2.768975 5.80442,2.768975 0,0 -2.91707,2.076734 -5.96262,1.384491 -3.05391,-0.692247 -12.22365,-3.461222 -12.22365,-3.461222 0,0 1.21932,2.353629 -0.30428,4.984156 -1.50968,2.630527 -4.53139,8.722272 -5.77249,10.660556 -1.23229,1.938283 -0.3434,3.04587 -1.54804,4.568806 -1.19772,1.522945 -4.04057,6.922447 -8.70446,7.891589 -4.64558,0.969141 -15.1687,1.522935 -15.1687,1.522935 0,0 -0.92001,-1.550027 1.11147,-0.165537 2.01997,1.384479 6.25878,0.553888 9.34904,2.492171 3.06533,1.938283 7.87395,14.865563 7.87395,14.865563 l -3.29188,2.768969 c 0,0 -0.45179,7.642498 0.0975,12.547306 0.27146,2.47555 1.39639,8.72227 0.85994,9.55296 -0.53456,0.8307 -1.38924,1.24604 -1.58896,2.21518 -0.199,0.96915 0.006,9.82987 0.54124,13.29109 0.52432,3.46121 2.95259,7.06089 2.85838,9.27606 -0.0942,2.21519 -0.34587,4.43036 -1.47545,5.12261 -1.12591,0.69224 -1.82217,2.63053 -3.64546,0.96915 -1.83835,-1.6614 -2.6801,-5.95331 -2.6801,-5.95331 l -2.17743,-0.48602 c 0,0 -2.48766,59.88207 -3.75803,59.88207 l -2.32373,0.0416 c -0.98795,0 -2.96581,-59.88831 -2.96581,-59.88831 l -5.62958,0.55379 c 0,0 -1.1185,59.51122 -2.39172,59.36819 l -2.51966,-0.0307 c -1.13414,-0.14302 -5.34194,-58.92208 -5.34194,-58.92208 l -2.76735,0.17379 c 0,0 0.58457,2.35363 -0.6179,3.59966 -1.19493,1.24605 -3.35173,2.80964 -4.16325,1.5577 -2.48871,-3.79721 -2.10175,-6.44511 -1.50845,-9.88896 0.72181,-4.09071 -1.20089,-10.91311 -0.34637,-15.89727 0.88091,-4.98416 2.22592,-8.16848 1.16881,-8.86073 -1.06025,-0.69224 -2.14884,-1.79982 -1.85731,-2.63052 0.29279,-0.83069 3.39323,-10.522113 3.39323,-10.522113 l -3.5018,-3.045871 c 0,0 0.24052,-14.537124 3.91375,-17.444549 3.7194,-2.907425 11.22998,-4.465218 11.22998,-4.465218 0,0 1.30086,0.882122 -0.0116,-0.08702 -1.31741,-0.969141 -7.5761,-0.266473 -11.95538,-3.035442 -4.42741,-2.768978 -5.79206,-3.73812 -5.79206,-3.73812 0,0 -0.39932,2.630523 -2.53969,4.015012 -2.12782,1.38449 -7.76953,2.492077 -7.76953,2.492077 0,0 1.67134,-2.215175 2.34373,-5.537947 0.68493,-3.322773 -1.78526,-8.445373 -1.78526,-8.445373 0,0 -1.60572,1.246033 -3.85358,1.522935 -2.24536,0.276892 -4.87959,0.415348 -4.87959,0.415348 0,0 1.65935,-2.492087 3.04266,-4.015022 1.39251,-1.522936 1.38513,-8.306925 0.64782,-10.106757 -0.74139,-1.799836 -2.92552,-2.215182 -2.00268,-4.984156 0.93538,-2.768978 6.53849,-9.552966 7.42543,-11.075904 0.89268,-1.522938 0.60355,-5.537952 3.04182,-8.445375 2.46685,-2.907425 8.18593,-3.184322 11.16994,-5.122605 3.00597,-1.938283 8.74223,-10.3836583 8.74223,-10.3836583 z"
           id="path29"
           sodipodi:nodetypes="ccsssscscsscscsscscccscscsssscssccsssssssccccccccccssssssccscsscscscscsssssscc"
           inkscape:path-effect="#path-effect29"
           inkscape:original-d="m 371.3082,1.8269514 0.95622,7.513156 c 0,0 5.05431,-1.775837 7.64976,-2.185645 2.59545,-0.409809 6.96675,-1.229426 8.33277,-1.229426 1.36603,0 2.04905,0.409809 3.00527,0 0.95622,-0.409808 1.50263,-0.273206 2.45885,-1.229425 0.95622,-0.95622 1.50263,-1.775837 1.50263,-1.775837 0,0 1.22942,1.912439 0.1366,3.961482 -1.09282,2.049043 -3.27847,4.9177016 -3.27847,4.9177016 0,0 1.91244,0.409809 5.60072,1.229425 3.68828,0.819618 4.50789,2.185646 6.96674,2.595454 2.45886,0.409809 8.05957,0 8.05957,0 0,0 -1.09282,2.595455 -4.37129,3.41507 -3.27847,0.819619 -5.19091,2.049045 -5.19091,2.049045 0,0 1.22943,1.91244 2.45885,3.141863 1.22943,1.229427 1.50264,2.322248 3.55168,3.141867 2.04904,0.819615 7.23995,3.278467 7.23995,3.278467 0,0 -1.91244,0.409808 -3.82488,0.819619 -1.91244,0.409808 -3.27847,0.819615 -3.27847,0.819615 l 4.37129,2.458853 -4.09808,0.546409 c 0,0 1.50263,1.092825 3.00526,2.185646 1.50263,1.092822 4.23469,2.732056 4.23469,2.732056 0,0 -1.91244,2.049045 -4.09809,1.366031 -2.18564,-0.683017 -8.74258,-3.415073 -8.74258,-3.415073 0,0 0.95622,2.322248 0,4.917702 -0.95622,2.595454 -2.86866,8.605978 -3.68828,10.518418 -0.81961,1.91244 -0.1366,3.00526 -0.95622,4.50789 -0.81961,1.50264 -2.73205,6.83015 -6.14712,7.78637 -3.41507,0.95622 -11.20144,1.50263 -11.20144,1.50263 0,0 -0.67958,-1.52936 0.82305,-0.16333 1.50263,1.36602 4.64107,0.546503 6.96332,2.458943 2.32224,1.91244 6.29402,14.66736 6.29402,14.66736 l -2.45885,2.73205 c 0,0 -0.16062,7.5406 0.39951,12.380011 0.28271,2.442541 1.36603,8.605981 0.95622,9.425591 -0.40981,0.81962 -1.09282,1.22943 -1.22942,2.18565 -0.13661,0.95622 0.2732,9.6988 0.81961,13.11387 0.54642,3.41507 2.73206,6.96675 2.73206,9.15239 0,2.18565 -0.1366,4.37129 -1.09282,5.05431 -0.95622,0.68301 -1.50263,2.59545 -3.14187,0.95622 -1.63923,-1.63924 -2.45885,-5.87393 -2.45885,-5.87393 l -1.87757,-0.47954 c 0,0 -1.36108,59.08366 -2.63118,59.08366 l -2.32303,0.041 c -0.98786,0 -2.8059,-59.08982 -2.8059,-59.08982 l -4.83647,0.54641 c 0,0 -2.07446,58.71775 -3.34456,58.57663 l -2.51867,-0.0303 c -1.12898,-0.14112 -2.95771,-58.13647 -2.95771,-58.13647 l -2.38624,0.17147 c 0,0 0.40981,2.32225 -0.68302,3.55167 -1.09282,1.22943 -3.0476,2.77217 -3.6917,1.53693 -1.95361,-3.74658 -1.47519,-6.35918 -0.78531,-9.75711 0.81945,-4.03617 -0.44069,-10.76761 0.51553,-15.68531 0.95622,-4.91771 2.18565,-8.05957 1.36603,-8.74259 -0.81962,-0.68301 -1.63923,-1.77583 -1.36603,-2.59545 0.27321,-0.81962 3.14187,-10.381822 3.14187,-10.381822 l -2.59546,-3.00526 c 0,0 0.81962,-14.3433 3.68828,-17.21196 2.86866,-2.86866 8.47967,-4.405683 8.47967,-4.405683 0,0 0.94935,0.87036 -0.007,-0.08586 -0.95622,-0.95622 -5.60414,-0.26292 -8.74601,-2.99497 -3.14186,-2.73206 -4.09808,-3.68828 -4.09808,-3.68828 0,0 -0.40981,2.59545 -2.04904,3.96148 -1.63924,1.36603 -5.87393,2.45885 -5.87393,2.45885 0,0 1.36603,-2.18564 2.04905,-5.46411 0.68301,-3.27847 -0.81962,-8.33277 -0.81962,-8.33277 0,0 -1.22943,1.22942 -2.86866,1.50263 -1.63923,0.2732 -3.55167,0.40981 -3.55167,0.40981 0,0 1.36603,-2.45886 2.45885,-3.96149 1.09282,-1.50263 1.50263,-8.196168 1.09282,-9.972003 -0.40981,-1.775839 -1.91244,-2.185647 -1.09282,-4.917702 0.81961,-2.732059 5.0543,-9.425596 5.73732,-10.928228 0.68301,-1.502633 0.68301,-5.464115 2.45885,-8.332773 1.77584,-2.86866 5.60071,-3.141865 7.64976,-5.054305 2.04904,-1.91244 6.01052,-10.2452126 6.01052,-10.2452126 z"
           transform="matrix(1,0,0,1.0749183,0,-11.166358)" /><ellipse
           style="fill:#fdfdfd;fill-opacity:1;stroke:none;stroke-width:0.405145;stroke-opacity:1"
           id="path30"
           cx="402.64459"
           cy="5.2084308"
           rx="4.3844724"
           ry="2.6654046"
           transform="matrix(0.99638142,0.08499452,-0.07242043,0.99737419,0,0)" /><ellipse
           style="fill:#fdfdfd;fill-opacity:1;stroke:none;stroke-width:0.405145;stroke-opacity:1"
           id="ellipse31"
           cx="382.44968"
           cy="4.9386444"
           rx="4.3844724"
           ry="2.6654046"
           transform="matrix(0.99638142,0.08499452,-0.07242043,0.99737419,0,0)" /></g></g><g
       id="g13"
       inkscape:label="Zeichnung"
       transform="matrix(0.06241519,0,0,0.06241519,332.64982,32.092949)"><path
         style="fill:#000000;fill-opacity:1;stroke:none;stroke-width:0.520999"
         d="m 365.65667,1.8269514 1.66962,7.6146829 c 0,0 7.62318,-1.7998343 11.56013,-2.2151801 3.94292,-0.4153468 10.59894,-1.2460395 12.67849,-1.2460395 2.07956,0 3.10969,0.4153468 4.57504,0 1.46755,-0.4153458 2.29584,-0.2768979 3.78395,-1.2460385 1.49325,-0.9691416 2.35904,-1.7998342 2.35904,-1.7998342 0,0 1.80392,1.9382822 0.0596,4.0150143 -1.73176,2.0767322 -5.12252,4.9841557 -5.12252,4.9841557 0,0 2.86598,0.415347 8.37953,1.246038 5.49659,0.830694 6.64838,2.215181 10.30139,2.630527 3.64737,0.415347 12.05018,0 12.05018,0 0,0 -1.8502,2.630528 -6.78887,3.461219 -4.92359,0.830695 -7.83348,2.076734 -7.83348,2.076734 0,0 1.69879,1.938283 3.42979,3.18432 1.72253,1.24604 2.04623,2.353629 4.98438,3.184323 2.92873,0.830691 10.26902,3.32277 10.26902,3.32277 0,0 -2.81621,0.415346 -5.62802,0.830695 -2.80742,0.415346 -4.81903,0.83069 -4.81903,0.83069 l 6.11234,2.49208 -5.94978,0.553793 c 0,0 2.07435,1.107593 4.13949,2.215181 2.05592,1.10759 5.80442,2.768975 5.80442,2.768975 0,0 -2.91707,2.076734 -5.96262,1.384491 -3.05391,-0.692247 -12.22365,-3.461222 -12.22365,-3.461222 0,0 1.21932,2.353629 -0.30428,4.984156 -1.50968,2.630527 -4.53139,8.722272 -5.77249,10.660556 -1.23229,1.938283 -0.3434,3.04587 -1.54804,4.568806 -1.19772,1.522945 -4.04057,6.922447 -8.70446,7.891589 -4.64558,0.969141 -15.1687,1.522935 -15.1687,1.522935 0,0 -0.92001,-1.550027 1.11147,-0.165537 2.01997,1.384479 6.25878,0.553888 9.34904,2.492171 3.06533,1.938283 7.87395,14.865563 7.87395,14.865563 l -3.29188,2.768969 c 0,0 -0.45179,7.642498 0.0975,12.547306 0.27146,2.47555 1.39639,8.72227 0.85994,9.55296 -0.53456,0.8307 -1.38924,1.24604 -1.58896,2.21518 -0.199,0.96915 0.006,9.82987 0.54124,13.29109 0.52432,3.46121 2.95259,7.06089 2.85838,9.27606 -0.0942,2.21519 -0.34587,4.43036 -1.47545,5.12261 -1.12591,0.69224 -1.82217,2.63053 -3.64546,0.96915 -1.83835,-1.6614 -2.6801,-5.95331 -2.6801,-5.95331 l -2.17743,-0.48602 c 0,0 -2.48766,59.88207 -3.75803,59.88207 l -2.32373,0.0416 c -0.98795,0 -2.96581,-59.88831 -2.96581,-59.88831 l -5.62958,0.55379 c 0,0 -1.1185,59.51122 -2.39172,59.36819 l -2.51966,-0.0307 c -1.13414,-0.14302 -5.34194,-58.92208 -5.34194,-58.92208 l -2.76735,0.17379 c 0,0 0.58457,2.35363 -0.6179,3.59966 -1.19493,1.24605 -3.35173,2.80964 -4.16325,1.5577 -2.48871,-3.79721 -2.10175,-6.44511 -1.50845,-9.88896 0.72181,-4.09071 -1.20089,-10.91311 -0.34637,-15.89727 0.88091,-4.98416 2.22592,-8.16848 1.16881,-8.86073 -1.06025,-0.69224 -2.14884,-1.79982 -1.85731,-2.63052 0.29279,-0.83069 3.39323,-10.522113 3.39323,-10.522113 l -3.5018,-3.045871 c 0,0 0.24052,-14.537124 3.91375,-17.444549 3.7194,-2.907425 11.22998,-4.465218 11.22998,-4.465218 0,0 1.30086,0.882122 -0.0116,-0.08702 -1.31741,-0.969141 -7.5761,-0.266473 -11.95538,-3.035442 -4.42741,-2.768978 -5.79206,-3.73812 -5.79206,-3.73812 0,0 -0.39932,2.630523 -2.53969,4.015012 -2.12782,1.38449 -7.76953,2.492077 -7.76953,2.492077 0,0 1.67134,-2.215175 2.34373,-5.537947 0.68493,-3.322773 -1.78526,-8.445373 -1.78526,-8.445373 0,0 -1.60572,1.246033 -3.85358,1.522935 -2.24536,0.276892 -4.87959,0.415348 -4.87959,0.415348 0,0 1.65935,-2.492087 3.04266,-4.015022 1.39251,-1.522936 1.38513,-8.306925 0.64782,-10.106757 -0.74139,-1.799836 -2.92552,-2.215182 -2.00268,-4.984156 0.93538,-2.768978 6.53849,-9.552966 7.42543,-11.075904 0.89268,-1.522938 0.60355,-5.537952 3.04182,-8.445375 2.46685,-2.907425 8.18593,-3.184322 11.16994,-5.122605 3.00597,-1.938283 8.74223,-10.3836583 8.74223,-10.3836583 z"
         id="path12"
         sodipodi:nodetypes="ccsssscscsscscsscscccscscsssscssccsssssssccccccccccssssssccscsscscscscsssssscc"
         inkscape:path-effect="#path-effect14"
         inkscape:original-d="m 371.3082,1.8269514 0.95622,7.513156 c 0,0 5.05431,-1.775837 7.64976,-2.185645 2.59545,-0.409809 6.96675,-1.229426 8.33277,-1.229426 1.36603,0 2.04905,0.409809 3.00527,0 0.95622,-0.409808 1.50263,-0.273206 2.45885,-1.229425 0.95622,-0.95622 1.50263,-1.775837 1.50263,-1.775837 0,0 1.22942,1.912439 0.1366,3.961482 -1.09282,2.049043 -3.27847,4.9177016 -3.27847,4.9177016 0,0 1.91244,0.409809 5.60072,1.229425 3.68828,0.819618 4.50789,2.185646 6.96674,2.595454 2.45886,0.409809 8.05957,0 8.05957,0 0,0 -1.09282,2.595455 -4.37129,3.41507 -3.27847,0.819619 -5.19091,2.049045 -5.19091,2.049045 0,0 1.22943,1.91244 2.45885,3.141863 1.22943,1.229427 1.50264,2.322248 3.55168,3.141867 2.04904,0.819615 7.23995,3.278467 7.23995,3.278467 0,0 -1.91244,0.409808 -3.82488,0.819619 -1.91244,0.409808 -3.27847,0.819615 -3.27847,0.819615 l 4.37129,2.458853 -4.09808,0.546409 c 0,0 1.50263,1.092825 3.00526,2.185646 1.50263,1.092822 4.23469,2.732056 4.23469,2.732056 0,0 -1.91244,2.049045 -4.09809,1.366031 -2.18564,-0.683017 -8.74258,-3.415073 -8.74258,-3.415073 0,0 0.95622,2.322248 0,4.917702 -0.95622,2.595454 -2.86866,8.605978 -3.68828,10.518418 -0.81961,1.91244 -0.1366,3.00526 -0.95622,4.50789 -0.81961,1.50264 -2.73205,6.83015 -6.14712,7.78637 -3.41507,0.95622 -11.20144,1.50263 -11.20144,1.50263 0,0 -0.67958,-1.52936 0.82305,-0.16333 1.50263,1.36602 4.64107,0.546503 6.96332,2.458943 2.32224,1.91244 6.29402,14.66736 6.29402,14.66736 l -2.45885,2.73205 c 0,0 -0.16062,7.5406 0.39951,12.380011 0.28271,2.442541 1.36603,8.605981 0.95622,9.425591 -0.40981,0.81962 -1.09282,1.22943 -1.22942,2.18565 -0.13661,0.95622 0.2732,9.6988 0.81961,13.11387 0.54642,3.41507 2.73206,6.96675 2.73206,9.15239 0,2.18565 -0.1366,4.37129 -1.09282,5.05431 -0.95622,0.68301 -1.50263,2.59545 -3.14187,0.95622 -1.63923,-1.63924 -2.45885,-5.87393 -2.45885,-5.87393 l -1.87757,-0.47954 c 0,0 -1.36108,59.08366 -2.63118,59.08366 l -2.32303,0.041 c -0.98786,0 -2.8059,-59.08982 -2.8059,-59.08982 l -4.83647,0.54641 c 0,0 -2.07446,58.71775 -3.34456,58.57663 l -2.51867,-0.0303 c -1.12898,-0.14112 -2.95771,-58.13647 -2.95771,-58.13647 l -2.38624,0.17147 c 0,0 0.40981,2.32225 -0.68302,3.55167 -1.09282,1.22943 -3.0476,2.77217 -3.6917,1.53693 -1.95361,-3.74658 -1.47519,-6.35918 -0.78531,-9.75711 0.81945,-4.03617 -0.44069,-10.76761 0.51553,-15.68531 0.95622,-4.91771 2.18565,-8.05957 1.36603,-8.74259 -0.81962,-0.68301 -1.63923,-1.77583 -1.36603,-2.59545 0.27321,-0.81962 3.14187,-10.381822 3.14187,-10.381822 l -2.59546,-3.00526 c 0,0 0.81962,-14.3433 3.68828,-17.21196 2.86866,-2.86866 8.47967,-4.405683 8.47967,-4.405683 0,0 0.94935,0.87036 -0.007,-0.08586 -0.95622,-0.95622 -5.60414,-0.26292 -8.74601,-2.99497 -3.14186,-2.73206 -4.09808,-3.68828 -4.09808,-3.68828 0,0 -0.40981,2.59545 -2.04904,3.96148 -1.63924,1.36603 -5.87393,2.45885 -5.87393,2.45885 0,0 1.36603,-2.18564 2.04905,-5.46411 0.68301,-3.27847 -0.81962,-8.33277 -0.81962,-8.33277 0,0 -1.22943,1.22942 -2.86866,1.50263 -1.63923,0.2732 -3.55167,0.40981 -3.55167,0.40981 0,0 1.36603,-2.45886 2.45885,-3.96149 1.09282,-1.50263 1.50263,-8.196168 1.09282,-9.972003 -0.40981,-1.775839 -1.91244,-2.185647 -1.09282,-4.917702 0.81961,-2.732059 5.0543,-9.425596 5.73732,-10.928228 0.68301,-1.502633 0.68301,-5.464115 2.45885,-8.332773 1.77584,-2.86866 5.60071,-3.141865 7.64976,-5.054305 2.04904,-1.91244 6.01052,-10.2452126 6.01052,-10.2452126 z"
         transform="matrix(1,0,0,1.0749183,0,-11.166358)" /><ellipse
         style="fill:#fdfdfd;fill-opacity:1;stroke:none;stroke-width:0.405145;stroke-opacity:1"
         id="ellipse12"
         cx="402.64459"
         cy="5.2084308"
         rx="4.3844724"
         ry="2.6654046"
         transform="matrix(0.99638142,0.08499452,-0.07242043,0.99737419,0,0)" /><ellipse
         style="fill:#fdfdfd;fill-opacity:1;stroke:none;stroke-width:0.405145;stroke-opacity:1"
         id="ellipse13"
         cx="382.44968"
         cy="4.9386444"
         rx="4.3844724"
         ry="2.6654046"
         transform="matrix(0.99638142,0.08499452,-0.07242043,0.99737419,0,0)" /></g><g
       id="g15"
       inkscape:label="Zeichnung"
       transform="matrix(0.06241519,0,0,0.06241519,373.16965,42.512335)"><path
         style="fill:#000000;fill-opacity:1;stroke:none;stroke-width:0.520999"
         d="m 365.65667,1.8269514 1.66962,7.6146829 c 0,0 7.62318,-1.7998343 11.56013,-2.2151801 3.94292,-0.4153468 10.59894,-1.2460395 12.67849,-1.2460395 2.07956,0 3.10969,0.4153468 4.57504,0 1.46755,-0.4153458 2.29584,-0.2768979 3.78395,-1.2460385 1.49325,-0.9691416 2.35904,-1.7998342 2.35904,-1.7998342 0,0 1.80392,1.9382822 0.0596,4.0150143 -1.73176,2.0767322 -5.12252,4.9841557 -5.12252,4.9841557 0,0 2.86598,0.415347 8.37953,1.246038 5.49659,0.830694 6.64838,2.215181 10.30139,2.630527 3.64737,0.415347 12.05018,0 12.05018,0 0,0 -1.8502,2.630528 -6.78887,3.461219 -4.92359,0.830695 -7.83348,2.076734 -7.83348,2.076734 0,0 1.69879,1.938283 3.42979,3.18432 1.72253,1.24604 2.04623,2.353629 4.98438,3.184323 2.92873,0.830691 10.26902,3.32277 10.26902,3.32277 0,0 -2.81621,0.415346 -5.62802,0.830695 -2.80742,0.415346 -4.81903,0.83069 -4.81903,0.83069 l 6.11234,2.49208 -5.94978,0.553793 c 0,0 2.07435,1.107593 4.13949,2.215181 2.05592,1.10759 5.80442,2.768975 5.80442,2.768975 0,0 -2.91707,2.076734 -5.96262,1.384491 -3.05391,-0.692247 -12.22365,-3.461222 -12.22365,-3.461222 0,0 1.21932,2.353629 -0.30428,4.984156 -1.50968,2.630527 -4.53139,8.722272 -5.77249,10.660556 -1.23229,1.938283 -0.3434,3.04587 -1.54804,4.568806 -1.19772,1.522945 -4.04057,6.922447 -8.70446,7.891589 -4.64558,0.969141 -15.1687,1.522935 -15.1687,1.522935 0,0 -0.92001,-1.550027 1.11147,-0.165537 2.01997,1.384479 6.25878,0.553888 9.34904,2.492171 3.06533,1.938283 7.87395,14.865563 7.87395,14.865563 l -3.29188,2.768969 c 0,0 -0.45179,7.642498 0.0975,12.547306 0.27146,2.47555 1.39639,8.72227 0.85994,9.55296 -0.53456,0.8307 -1.38924,1.24604 -1.58896,2.21518 -0.199,0.96915 0.006,9.82987 0.54124,13.29109 0.52432,3.46121 2.95259,7.06089 2.85838,9.27606 -0.0942,2.21519 -0.34587,4.43036 -1.47545,5.12261 -1.12591,0.69224 -1.82217,2.63053 -3.64546,0.96915 -1.83835,-1.6614 -2.6801,-5.95331 -2.6801,-5.95331 l -2.17743,-0.48602 c 0,0 -2.48766,59.88207 -3.75803,59.88207 l -2.32373,0.0416 c -0.98795,0 -2.96581,-59.88831 -2.96581,-59.88831 l -5.62958,0.55379 c 0,0 -1.1185,59.51122 -2.39172,59.36819 l -2.51966,-0.0307 c -1.13414,-0.14302 -5.34194,-58.92208 -5.34194,-58.92208 l -2.76735,0.17379 c 0,0 0.58457,2.35363 -0.6179,3.59966 -1.19493,1.24605 -3.35173,2.80964 -4.16325,1.5577 -2.48871,-3.79721 -2.10175,-6.44511 -1.50845,-9.88896 0.72181,-4.09071 -1.20089,-10.91311 -0.34637,-15.89727 0.88091,-4.98416 2.22592,-8.16848 1.16881,-8.86073 -1.06025,-0.69224 -2.14884,-1.79982 -1.85731,-2.63052 0.29279,-0.83069 3.39323,-10.522113 3.39323,-10.522113 l -3.5018,-3.045871 c 0,0 0.24052,-14.537124 3.91375,-17.444549 3.7194,-2.907425 11.22998,-4.465218 11.22998,-4.465218 0,0 1.30086,0.882122 -0.0116,-0.08702 -1.31741,-0.969141 -7.5761,-0.266473 -11.95538,-3.035442 -4.42741,-2.768978 -5.79206,-3.73812 -5.79206,-3.73812 0,0 -0.39932,2.630523 -2.53969,4.015012 -2.12782,1.38449 -7.76953,2.492077 -7.76953,2.492077 0,0 1.67134,-2.215175 2.34373,-5.537947 0.68493,-3.322773 -1.78526,-8.445373 -1.78526,-8.445373 0,0 -1.60572,1.246033 -3.85358,1.522935 -2.24536,0.276892 -4.87959,0.415348 -4.87959,0.415348 0,0 1.65935,-2.492087 3.04266,-4.015022 1.39251,-1.522936 1.38513,-8.306925 0.64782,-10.106757 -0.74139,-1.799836 -2.92552,-2.215182 -2.00268,-4.984156 0.93538,-2.768978 6.53849,-9.552966 7.42543,-11.075904 0.89268,-1.522938 0.60355,-5.537952 3.04182,-8.445375 2.46685,-2.907425 8.18593,-3.184322 11.16994,-5.122605 3.00597,-1.938283 8.74223,-10.3836583 8.74223,-10.3836583 z"
         id="path14"
         sodipodi:nodetypes="ccsssscscsscscsscscccscscsssscssccsssssssccccccccccssssssccscsscscscscsssssscc"
         inkscape:path-effect="#path-effect16"
         inkscape:original-d="m 371.3082,1.8269514 0.95622,7.513156 c 0,0 5.05431,-1.775837 7.64976,-2.185645 2.59545,-0.409809 6.96675,-1.229426 8.33277,-1.229426 1.36603,0 2.04905,0.409809 3.00527,0 0.95622,-0.409808 1.50263,-0.273206 2.45885,-1.229425 0.95622,-0.95622 1.50263,-1.775837 1.50263,-1.775837 0,0 1.22942,1.912439 0.1366,3.961482 -1.09282,2.049043 -3.27847,4.9177016 -3.27847,4.9177016 0,0 1.91244,0.409809 5.60072,1.229425 3.68828,0.819618 4.50789,2.185646 6.96674,2.595454 2.45886,0.409809 8.05957,0 8.05957,0 0,0 -1.09282,2.595455 -4.37129,3.41507 -3.27847,0.819619 -5.19091,2.049045 -5.19091,2.049045 0,0 1.22943,1.91244 2.45885,3.141863 1.22943,1.229427 1.50264,2.322248 3.55168,3.141867 2.04904,0.819615 7.23995,3.278467 7.23995,3.278467 0,0 -1.91244,0.409808 -3.82488,0.819619 -1.91244,0.409808 -3.27847,0.819615 -3.27847,0.819615 l 4.37129,2.458853 -4.09808,0.546409 c 0,0 1.50263,1.092825 3.00526,2.185646 1.50263,1.092822 4.23469,2.732056 4.23469,2.732056 0,0 -1.91244,2.049045 -4.09809,1.366031 -2.18564,-0.683017 -8.74258,-3.415073 -8.74258,-3.415073 0,0 0.95622,2.322248 0,4.917702 -0.95622,2.595454 -2.86866,8.605978 -3.68828,10.518418 -0.81961,1.91244 -0.1366,3.00526 -0.95622,4.50789 -0.81961,1.50264 -2.73205,6.83015 -6.14712,7.78637 -3.41507,0.95622 -11.20144,1.50263 -11.20144,1.50263 0,0 -0.67958,-1.52936 0.82305,-0.16333 1.50263,1.36602 4.64107,0.546503 6.96332,2.458943 2.32224,1.91244 6.29402,14.66736 6.29402,14.66736 l -2.45885,2.73205 c 0,0 -0.16062,7.5406 0.39951,12.380011 0.28271,2.442541 1.36603,8.605981 0.95622,9.425591 -0.40981,0.81962 -1.09282,1.22943 -1.22942,2.18565 -0.13661,0.95622 0.2732,9.6988 0.81961,13.11387 0.54642,3.41507 2.73206,6.96675 2.73206,9.15239 0,2.18565 -0.1366,4.37129 -1.09282,5.05431 -0.95622,0.68301 -1.50263,2.59545 -3.14187,0.95622 -1.63923,-1.63924 -2.45885,-5.87393 -2.45885,-5.87393 l -1.87757,-0.47954 c 0,0 -1.36108,59.08366 -2.63118,59.08366 l -2.32303,0.041 c -0.98786,0 -2.8059,-59.08982 -2.8059,-59.08982 l -4.83647,0.54641 c 0,0 -2.07446,58.71775 -3.34456,58.57663 l -2.51867,-0.0303 c -1.12898,-0.14112 -2.95771,-58.13647 -2.95771,-58.13647 l -2.38624,0.17147 c 0,0 0.40981,2.32225 -0.68302,3.55167 -1.09282,1.22943 -3.0476,2.77217 -3.6917,1.53693 -1.95361,-3.74658 -1.47519,-6.35918 -0.78531,-9.75711 0.81945,-4.03617 -0.44069,-10.76761 0.51553,-15.68531 0.95622,-4.91771 2.18565,-8.05957 1.36603,-8.74259 -0.81962,-0.68301 -1.63923,-1.77583 -1.36603,-2.59545 0.27321,-0.81962 3.14187,-10.381822 3.14187,-10.381822 l -2.59546,-3.00526 c 0,0 0.81962,-14.3433 3.68828,-17.21196 2.86866,-2.86866 8.47967,-4.405683 8.47967,-4.405683 0,0 0.94935,0.87036 -0.007,-0.08586 -0.95622,-0.95622 -5.60414,-0.26292 -8.74601,-2.99497 -3.14186,-2.73206 -4.09808,-3.68828 -4.09808,-3.68828 0,0 -0.40981,2.59545 -2.04904,3.96148 -1.63924,1.36603 -5.87393,2.45885 -5.87393,2.45885 0,0 1.36603,-2.18564 2.04905,-5.46411 0.68301,-3.27847 -0.81962,-8.33277 -0.81962,-8.33277 0,0 -1.22943,1.22942 -2.86866,1.50263 -1.63923,0.2732 -3.55167,0.40981 -3.55167,0.40981 0,0 1.36603,-2.45886 2.45885,-3.96149 1.09282,-1.50263 1.50263,-8.196168 1.09282,-9.972003 -0.40981,-1.775839 -1.91244,-2.185647 -1.09282,-4.917702 0.81961,-2.732059 5.0543,-9.425596 5.73732,-10.928228 0.68301,-1.502633 0.68301,-5.464115 2.45885,-8.332773 1.77584,-2.86866 5.60071,-3.141865 7.64976,-5.054305 2.04904,-1.91244 6.01052,-10.2452126 6.01052,-10.2452126 z"
         transform="matrix(1,0,0,1.0749183,0,-11.166358)" /><ellipse
         style="fill:#fdfdfd;fill-opacity:1;stroke:none;stroke-width:0.405145;stroke-opacity:1"
         id="ellipse14"
         cx="402.64459"
         cy="5.2084308"
         rx="4.3844724"
         ry="2.6654046"
         transform="matrix(0.99638142,0.08499452,-0.07242043,0.99737419,0,0)" /><ellipse
         style="fill:#fdfdfd;fill-opacity:1;stroke:none;stroke-width:0.405145;stroke-opacity:1"
         id="ellipse15"
         cx="382.44968"
         cy="4.9386444"
         rx="4.3844724"
         ry="2.6654046"
         transform="matrix(0.99638142,0.08499452,-0.07242043,0.99737419,0,0)" /></g><g
       id="g17"
       inkscape:label="Zeichnung"
       transform="matrix(0.06241519,0,0,0.06241519,410.21636,-2.2524312)"><path
         style="fill:#000000;fill-opacity:1;stroke:none;stroke-width:0.520999"
         d="m 365.65667,1.8269514 1.66962,7.6146829 c 0,0 7.62318,-1.7998343 11.56013,-2.2151801 3.94292,-0.4153468 10.59894,-1.2460395 12.67849,-1.2460395 2.07956,0 3.10969,0.4153468 4.57504,0 1.46755,-0.4153458 2.29584,-0.2768979 3.78395,-1.2460385 1.49325,-0.9691416 2.35904,-1.7998342 2.35904,-1.7998342 0,0 1.80392,1.9382822 0.0596,4.0150143 -1.73176,2.0767322 -5.12252,4.9841557 -5.12252,4.9841557 0,0 2.86598,0.415347 8.37953,1.246038 5.49659,0.830694 6.64838,2.215181 10.30139,2.630527 3.64737,0.415347 12.05018,0 12.05018,0 0,0 -1.8502,2.630528 -6.78887,3.461219 -4.92359,0.830695 -7.83348,2.076734 -7.83348,2.076734 0,0 1.69879,1.938283 3.42979,3.18432 1.72253,1.24604 2.04623,2.353629 4.98438,3.184323 2.92873,0.830691 10.26902,3.32277 10.26902,3.32277 0,0 -2.81621,0.415346 -5.62802,0.830695 -2.80742,0.415346 -4.81903,0.83069 -4.81903,0.83069 l 6.11234,2.49208 -5.94978,0.553793 c 0,0 2.07435,1.107593 4.13949,2.215181 2.05592,1.10759 5.80442,2.768975 5.80442,2.768975 0,0 -2.91707,2.076734 -5.96262,1.384491 -3.05391,-0.692247 -12.22365,-3.461222 -12.22365,-3.461222 0,0 1.21932,2.353629 -0.30428,4.984156 -1.50968,2.630527 -4.53139,8.722272 -5.77249,10.660556 -1.23229,1.938283 -0.3434,3.04587 -1.54804,4.568806 -1.19772,1.522945 -4.04057,6.922447 -8.70446,7.891589 -4.64558,0.969141 -15.1687,1.522935 -15.1687,1.522935 0,0 -0.92001,-1.550027 1.11147,-0.165537 2.01997,1.384479 6.25878,0.553888 9.34904,2.492171 3.06533,1.938283 7.87395,14.865563 7.87395,14.865563 l -3.29188,2.768969 c 0,0 -0.45179,7.642498 0.0975,12.547306 0.27146,2.47555 1.39639,8.72227 0.85994,9.55296 -0.53456,0.8307 -1.38924,1.24604 -1.58896,2.21518 -0.199,0.96915 0.006,9.82987 0.54124,13.29109 0.52432,3.46121 2.95259,7.06089 2.85838,9.27606 -0.0942,2.21519 -0.34587,4.43036 -1.47545,5.12261 -1.12591,0.69224 -1.82217,2.63053 -3.64546,0.96915 -1.83835,-1.6614 -2.6801,-5.95331 -2.6801,-5.95331 l -2.17743,-0.48602 c 0,0 -2.48766,59.88207 -3.75803,59.88207 l -2.32373,0.0416 c -0.98795,0 -2.96581,-59.88831 -2.96581,-59.88831 l -5.62958,0.55379 c 0,0 -1.1185,59.51122 -2.39172,59.36819 l -2.51966,-0.0307 c -1.13414,-0.14302 -5.34194,-58.92208 -5.34194,-58.92208 l -2.76735,0.17379 c 0,0 0.58457,2.35363 -0.6179,3.59966 -1.19493,1.24605 -3.35173,2.80964 -4.16325,1.5577 -2.48871,-3.79721 -2.10175,-6.44511 -1.50845,-9.88896 0.72181,-4.09071 -1.20089,-10.91311 -0.34637,-15.89727 0.88091,-4.98416 2.22592,-8.16848 1.16881,-8.86073 -1.06025,-0.69224 -2.14884,-1.79982 -1.85731,-2.63052 0.29279,-0.83069 3.39323,-10.522113 3.39323,-10.522113 l -3.5018,-3.045871 c 0,0 0.24052,-14.537124 3.91375,-17.444549 3.7194,-2.907425 11.22998,-4.465218 11.22998,-4.465218 0,0 1.30086,0.882122 -0.0116,-0.08702 -1.31741,-0.969141 -7.5761,-0.266473 -11.95538,-3.035442 -4.42741,-2.768978 -5.79206,-3.73812 -5.79206,-3.73812 0,0 -0.39932,2.630523 -2.53969,4.015012 -2.12782,1.38449 -7.76953,2.492077 -7.76953,2.492077 0,0 1.67134,-2.215175 2.34373,-5.537947 0.68493,-3.322773 -1.78526,-8.445373 -1.78526,-8.445373 0,0 -1.60572,1.246033 -3.85358,1.522935 -2.24536,0.276892 -4.87959,0.415348 -4.87959,0.415348 0,0 1.65935,-2.492087 3.04266,-4.015022 1.39251,-1.522936 1.38513,-8.306925 0.64782,-10.106757 -0.74139,-1.799836 -2.92552,-2.215182 -2.00268,-4.984156 0.93538,-2.768978 6.53849,-9.552966 7.42543,-11.075904 0.89268,-1.522938 0.60355,-5.537952 3.04182,-8.445375 2.46685,-2.907425 8.18593,-3.184322 11.16994,-5.122605 3.00597,-1.938283 8.74223,-10.3836583 8.74223,-10.3836583 z"
         id="path16"
         sodipodi:nodetypes="ccsssscscsscscsscscccscscsssscssccsssssssccccccccccssssssccscsscscscscsssssscc"
         inkscape:path-effect="#path-effect18"
         inkscape:original-d="m 371.3082,1.8269514 0.95622,7.513156 c 0,0 5.05431,-1.775837 7.64976,-2.185645 2.59545,-0.409809 6.96675,-1.229426 8.33277,-1.229426 1.36603,0 2.04905,0.409809 3.00527,0 0.95622,-0.409808 1.50263,-0.273206 2.45885,-1.229425 0.95622,-0.95622 1.50263,-1.775837 1.50263,-1.775837 0,0 1.22942,1.912439 0.1366,3.961482 -1.09282,2.049043 -3.27847,4.9177016 -3.27847,4.9177016 0,0 1.91244,0.409809 5.60072,1.229425 3.68828,0.819618 4.50789,2.185646 6.96674,2.595454 2.45886,0.409809 8.05957,0 8.05957,0 0,0 -1.09282,2.595455 -4.37129,3.41507 -3.27847,0.819619 -5.19091,2.049045 -5.19091,2.049045 0,0 1.22943,1.91244 2.45885,3.141863 1.22943,1.229427 1.50264,2.322248 3.55168,3.141867 2.04904,0.819615 7.23995,3.278467 7.23995,3.278467 0,0 -1.91244,0.409808 -3.82488,0.819619 -1.91244,0.409808 -3.27847,0.819615 -3.27847,0.819615 l 4.37129,2.458853 -4.09808,0.546409 c 0,0 1.50263,1.092825 3.00526,2.185646 1.50263,1.092822 4.23469,2.732056 4.23469,2.732056 0,0 -1.91244,2.049045 -4.09809,1.366031 -2.18564,-0.683017 -8.74258,-3.415073 -8.74258,-3.415073 0,0 0.95622,2.322248 0,4.917702 -0.95622,2.595454 -2.86866,8.605978 -3.68828,10.518418 -0.81961,1.91244 -0.1366,3.00526 -0.95622,4.50789 -0.81961,1.50264 -2.73205,6.83015 -6.14712,7.78637 -3.41507,0.95622 -11.20144,1.50263 -11.20144,1.50263 0,0 -0.67958,-1.52936 0.82305,-0.16333 1.50263,1.36602 4.64107,0.546503 6.96332,2.458943 2.32224,1.91244 6.29402,14.66736 6.29402,14.66736 l -2.45885,2.73205 c 0,0 -0.16062,7.5406 0.39951,12.380011 0.28271,2.442541 1.36603,8.605981 0.95622,9.425591 -0.40981,0.81962 -1.09282,1.22943 -1.22942,2.18565 -0.13661,0.95622 0.2732,9.6988 0.81961,13.11387 0.54642,3.41507 2.73206,6.96675 2.73206,9.15239 0,2.18565 -0.1366,4.37129 -1.09282,5.05431 -0.95622,0.68301 -1.50263,2.59545 -3.14187,0.95622 -1.63923,-1.63924 -2.45885,-5.87393 -2.45885,-5.87393 l -1.87757,-0.47954 c 0,0 -1.36108,59.08366 -2.63118,59.08366 l -2.32303,0.041 c -0.98786,0 -2.8059,-59.08982 -2.8059,-59.08982 l -4.83647,0.54641 c 0,0 -2.07446,58.71775 -3.34456,58.57663 l -2.51867,-0.0303 c -1.12898,-0.14112 -2.95771,-58.13647 -2.95771,-58.13647 l -2.38624,0.17147 c 0,0 0.40981,2.32225 -0.68302,3.55167 -1.09282,1.22943 -3.0476,2.77217 -3.6917,1.53693 -1.95361,-3.74658 -1.47519,-6.35918 -0.78531,-9.75711 0.81945,-4.03617 -0.44069,-10.76761 0.51553,-15.68531 0.95622,-4.91771 2.18565,-8.05957 1.36603,-8.74259 -0.81962,-0.68301 -1.63923,-1.77583 -1.36603,-2.59545 0.27321,-0.81962 3.14187,-10.381822 3.14187,-10.381822 l -2.59546,-3.00526 c 0,0 0.81962,-14.3433 3.68828,-17.21196 2.86866,-2.86866 8.47967,-4.405683 8.47967,-4.405683 0,0 0.94935,0.87036 -0.007,-0.08586 -0.95622,-0.95622 -5.60414,-0.26292 -8.74601,-2.99497 -3.14186,-2.73206 -4.09808,-3.68828 -4.09808,-3.68828 0,0 -0.40981,2.59545 -2.04904,3.96148 -1.63924,1.36603 -5.87393,2.45885 -5.87393,2.45885 0,0 1.36603,-2.18564 2.04905,-5.46411 0.68301,-3.27847 -0.81962,-8.33277 -0.81962,-8.33277 0,0 -1.22943,1.22942 -2.86866,1.50263 -1.63923,0.2732 -3.55167,0.40981 -3.55167,0.40981 0,0 1.36603,-2.45886 2.45885,-3.96149 1.09282,-1.50263 1.50263,-8.196168 1.09282,-9.972003 -0.40981,-1.775839 -1.91244,-2.185647 -1.09282,-4.917702 0.81961,-2.732059 5.0543,-9.425596 5.73732,-10.928228 0.68301,-1.502633 0.68301,-5.464115 2.45885,-8.332773 1.77584,-2.86866 5.60071,-3.141865 7.64976,-5.054305 2.04904,-1.91244 6.01052,-10.2452126 6.01052,-10.2452126 z"
         transform="matrix(1,0,0,1.0749183,0,-11.166358)" /><ellipse
         style="fill:#fdfdfd;fill-opacity:1;stroke:none;stroke-width:0.405145;stroke-opacity:1"
         id="ellipse16"
         cx="402.64459"
         cy="5.2084308"
         rx="4.3844724"
         ry="2.6654046"
         transform="matrix(0.99638142,0.08499452,-0.07242043,0.99737419,0,0)" /><ellipse
         style="fill:#fdfdfd;fill-opacity:1;stroke:none;stroke-width:0.405145;stroke-opacity:1"
         id="ellipse17"
         cx="382.44968"
         cy="4.9386444"
         rx="4.3844724"
         ry="2.6654046"
         transform="matrix(0.99638142,0.08499452,-0.07242043,0.99737419,0,0)" /></g><g
       id="g19"
       inkscape:label="Zeichnung"
       transform="matrix(0.06241519,0,0,0.06241519,395.93794,0.06298779)"><path
         style="fill:#000000;fill-opacity:1;stroke:none;stroke-width:0.520999"
         d="m 365.65667,1.8269514 1.66962,7.6146829 c 0,0 7.62318,-1.7998343 11.56013,-2.2151801 3.94292,-0.4153468 10.59894,-1.2460395 12.67849,-1.2460395 2.07956,0 3.10969,0.4153468 4.57504,0 1.46755,-0.4153458 2.29584,-0.2768979 3.78395,-1.2460385 1.49325,-0.9691416 2.35904,-1.7998342 2.35904,-1.7998342 0,0 1.80392,1.9382822 0.0596,4.0150143 -1.73176,2.0767322 -5.12252,4.9841557 -5.12252,4.9841557 0,0 2.86598,0.415347 8.37953,1.246038 5.49659,0.830694 6.64838,2.215181 10.30139,2.630527 3.64737,0.415347 12.05018,0 12.05018,0 0,0 -1.8502,2.630528 -6.78887,3.461219 -4.92359,0.830695 -7.83348,2.076734 -7.83348,2.076734 0,0 1.69879,1.938283 3.42979,3.18432 1.72253,1.24604 2.04623,2.353629 4.98438,3.184323 2.92873,0.830691 10.26902,3.32277 10.26902,3.32277 0,0 -2.81621,0.415346 -5.62802,0.830695 -2.80742,0.415346 -4.81903,0.83069 -4.81903,0.83069 l 6.11234,2.49208 -5.94978,0.553793 c 0,0 2.07435,1.107593 4.13949,2.215181 2.05592,1.10759 5.80442,2.768975 5.80442,2.768975 0,0 -2.91707,2.076734 -5.96262,1.384491 -3.05391,-0.692247 -12.22365,-3.461222 -12.22365,-3.461222 0,0 1.21932,2.353629 -0.30428,4.984156 -1.50968,2.630527 -4.53139,8.722272 -5.77249,10.660556 -1.23229,1.938283 -0.3434,3.04587 -1.54804,4.568806 -1.19772,1.522945 -4.04057,6.922447 -8.70446,7.891589 -4.64558,0.969141 -15.1687,1.522935 -15.1687,1.522935 0,0 -0.92001,-1.550027 1.11147,-0.165537 2.01997,1.384479 6.25878,0.553888 9.34904,2.492171 3.06533,1.938283 7.87395,14.865563 7.87395,14.865563 l -3.29188,2.768969 c 0,0 -0.45179,7.642498 0.0975,12.547306 0.27146,2.47555 1.39639,8.72227 0.85994,9.55296 -0.53456,0.8307 -1.38924,1.24604 -1.58896,2.21518 -0.199,0.96915 0.006,9.82987 0.54124,13.29109 0.52432,3.46121 2.95259,7.06089 2.85838,9.27606 -0.0942,2.21519 -0.34587,4.43036 -1.47545,5.12261 -1.12591,0.69224 -1.82217,2.63053 -3.64546,0.96915 -1.83835,-1.6614 -2.6801,-5.95331 -2.6801,-5.95331 l -2.17743,-0.48602 c 0,0 -2.48766,59.88207 -3.75803,59.88207 l -2.32373,0.0416 c -0.98795,0 -2.96581,-59.88831 -2.96581,-59.88831 l -5.62958,0.55379 c 0,0 -1.1185,59.51122 -2.39172,59.36819 l -2.51966,-0.0307 c -1.13414,-0.14302 -5.34194,-58.92208 -5.34194,-58.92208 l -2.76735,0.17379 c 0,0 0.58457,2.35363 -0.6179,3.59966 -1.19493,1.24605 -3.35173,2.80964 -4.16325,1.5577 -2.48871,-3.79721 -2.10175,-6.44511 -1.50845,-9.88896 0.72181,-4.09071 -1.20089,-10.91311 -0.34637,-15.89727 0.88091,-4.98416 2.22592,-8.16848 1.16881,-8.86073 -1.06025,-0.69224 -2.14884,-1.79982 -1.85731,-2.63052 0.29279,-0.83069 3.39323,-10.522113 3.39323,-10.522113 l -3.5018,-3.045871 c 0,0 0.24052,-14.537124 3.91375,-17.444549 3.7194,-2.907425 11.22998,-4.465218 11.22998,-4.465218 0,0 1.30086,0.882122 -0.0116,-0.08702 -1.31741,-0.969141 -7.5761,-0.266473 -11.95538,-3.035442 -4.42741,-2.768978 -5.79206,-3.73812 -5.79206,-3.73812 0,0 -0.39932,2.630523 -2.53969,4.015012 -2.12782,1.38449 -7.76953,2.492077 -7.76953,2.492077 0,0 1.67134,-2.215175 2.34373,-5.537947 0.68493,-3.322773 -1.78526,-8.445373 -1.78526,-8.445373 0,0 -1.60572,1.246033 -3.85358,1.522935 -2.24536,0.276892 -4.87959,0.415348 -4.87959,0.415348 0,0 1.65935,-2.492087 3.04266,-4.015022 1.39251,-1.522936 1.38513,-8.306925 0.64782,-10.106757 -0.74139,-1.799836 -2.92552,-2.215182 -2.00268,-4.984156 0.93538,-2.768978 6.53849,-9.552966 7.42543,-11.075904 0.89268,-1.522938 0.60355,-5.537952 3.04182,-8.445375 2.46685,-2.907425 8.18593,-3.184322 11.16994,-5.122605 3.00597,-1.938283 8.74223,-10.3836583 8.74223,-10.3836583 z"
         id="path18"
         sodipodi:nodetypes="ccsssscscsscscsscscccscscsssscssccsssssssccccccccccssssssccscsscscscscsssssscc"
         inkscape:path-effect="#path-effect20"
         inkscape:original-d="m 371.3082,1.8269514 0.95622,7.513156 c 0,0 5.05431,-1.775837 7.64976,-2.185645 2.59545,-0.409809 6.96675,-1.229426 8.33277,-1.229426 1.36603,0 2.04905,0.409809 3.00527,0 0.95622,-0.409808 1.50263,-0.273206 2.45885,-1.229425 0.95622,-0.95622 1.50263,-1.775837 1.50263,-1.775837 0,0 1.22942,1.912439 0.1366,3.961482 -1.09282,2.049043 -3.27847,4.9177016 -3.27847,4.9177016 0,0 1.91244,0.409809 5.60072,1.229425 3.68828,0.819618 4.50789,2.185646 6.96674,2.595454 2.45886,0.409809 8.05957,0 8.05957,0 0,0 -1.09282,2.595455 -4.37129,3.41507 -3.27847,0.819619 -5.19091,2.049045 -5.19091,2.049045 0,0 1.22943,1.91244 2.45885,3.141863 1.22943,1.229427 1.50264,2.322248 3.55168,3.141867 2.04904,0.819615 7.23995,3.278467 7.23995,3.278467 0,0 -1.91244,0.409808 -3.82488,0.819619 -1.91244,0.409808 -3.27847,0.819615 -3.27847,0.819615 l 4.37129,2.458853 -4.09808,0.546409 c 0,0 1.50263,1.092825 3.00526,2.185646 1.50263,1.092822 4.23469,2.732056 4.23469,2.732056 0,0 -1.91244,2.049045 -4.09809,1.366031 -2.18564,-0.683017 -8.74258,-3.415073 -8.74258,-3.415073 0,0 0.95622,2.322248 0,4.917702 -0.95622,2.595454 -2.86866,8.605978 -3.68828,10.518418 -0.81961,1.91244 -0.1366,3.00526 -0.95622,4.50789 -0.81961,1.50264 -2.73205,6.83015 -6.14712,7.78637 -3.41507,0.95622 -11.20144,1.50263 -11.20144,1.50263 0,0 -0.67958,-1.52936 0.82305,-0.16333 1.50263,1.36602 4.64107,0.546503 6.96332,2.458943 2.32224,1.91244 6.29402,14.66736 6.29402,14.66736 l -2.45885,2.73205 c 0,0 -0.16062,7.5406 0.39951,12.380011 0.28271,2.442541 1.36603,8.605981 0.95622,9.425591 -0.40981,0.81962 -1.09282,1.22943 -1.22942,2.18565 -0.13661,0.95622 0.2732,9.6988 0.81961,13.11387 0.54642,3.41507 2.73206,6.96675 2.73206,9.15239 0,2.18565 -0.1366,4.37129 -1.09282,5.05431 -0.95622,0.68301 -1.50263,2.59545 -3.14187,0.95622 -1.63923,-1.63924 -2.45885,-5.87393 -2.45885,-5.87393 l -1.87757,-0.47954 c 0,0 -1.36108,59.08366 -2.63118,59.08366 l -2.32303,0.041 c -0.98786,0 -2.8059,-59.08982 -2.8059,-59.08982 l -4.83647,0.54641 c 0,0 -2.07446,58.71775 -3.34456,58.57663 l -2.51867,-0.0303 c -1.12898,-0.14112 -2.95771,-58.13647 -2.95771,-58.13647 l -2.38624,0.17147 c 0,0 0.40981,2.32225 -0.68302,3.55167 -1.09282,1.22943 -3.0476,2.77217 -3.6917,1.53693 -1.95361,-3.74658 -1.47519,-6.35918 -0.78531,-9.75711 0.81945,-4.03617 -0.44069,-10.76761 0.51553,-15.68531 0.95622,-4.91771 2.18565,-8.05957 1.36603,-8.74259 -0.81962,-0.68301 -1.63923,-1.77583 -1.36603,-2.59545 0.27321,-0.81962 3.14187,-10.381822 3.14187,-10.381822 l -2.59546,-3.00526 c 0,0 0.81962,-14.3433 3.68828,-17.21196 2.86866,-2.86866 8.47967,-4.405683 8.47967,-4.405683 0,0 0.94935,0.87036 -0.007,-0.08586 -0.95622,-0.95622 -5.60414,-0.26292 -8.74601,-2.99497 -3.14186,-2.73206 -4.09808,-3.68828 -4.09808,-3.68828 0,0 -0.40981,2.59545 -2.04904,3.96148 -1.63924,1.36603 -5.87393,2.45885 -5.87393,2.45885 0,0 1.36603,-2.18564 2.04905,-5.46411 0.68301,-3.27847 -0.81962,-8.33277 -0.81962,-8.33277 0,0 -1.22943,1.22942 -2.86866,1.50263 -1.63923,0.2732 -3.55167,0.40981 -3.55167,0.40981 0,0 1.36603,-2.45886 2.45885,-3.96149 1.09282,-1.50263 1.50263,-8.196168 1.09282,-9.972003 -0.40981,-1.775839 -1.91244,-2.185647 -1.09282,-4.917702 0.81961,-2.732059 5.0543,-9.425596 5.73732,-10.928228 0.68301,-1.502633 0.68301,-5.464115 2.45885,-8.332773 1.77584,-2.86866 5.60071,-3.141865 7.64976,-5.054305 2.04904,-1.91244 6.01052,-10.2452126 6.01052,-10.2452126 z"
         transform="matrix(1,0,0,1.0749183,0,-11.166358)" /><ellipse
         style="fill:#fdfdfd;fill-opacity:1;stroke:none;stroke-width:0.405145;stroke-opacity:1"
         id="ellipse18"
         cx="402.64459"
         cy="5.2084308"
         rx="4.3844724"
         ry="2.6654046"
         transform="matrix(0.99638142,0.08499452,-0.07242043,0.99737419,0,0)" /><ellipse
         style="fill:#fdfdfd;fill-opacity:1;stroke:none;stroke-width:0.405145;stroke-opacity:1"
         id="ellipse19"
         cx="382.44968"
         cy="4.9386444"
         rx="4.3844724"
         ry="2.6654046"
         transform="matrix(0.99638142,0.08499452,-0.07242043,0.99737419,0,0)" /></g><g
       id="g21"
       inkscape:label="Zeichnung"
       transform="matrix(0.06241519,0,0,0.06241519,420.25589,30.647326)"><path
         style="fill:#000000;fill-opacity:1;stroke:none;stroke-width:0.520999"
         d="m 365.65667,1.8269514 1.66962,7.6146829 c 0,0 7.62318,-1.7998343 11.56013,-2.2151801 3.94292,-0.4153468 10.59894,-1.2460395 12.67849,-1.2460395 2.07956,0 3.10969,0.4153468 4.57504,0 1.46755,-0.4153458 2.29584,-0.2768979 3.78395,-1.2460385 1.49325,-0.9691416 2.35904,-1.7998342 2.35904,-1.7998342 0,0 1.80392,1.9382822 0.0596,4.0150143 -1.73176,2.0767322 -5.12252,4.9841557 -5.12252,4.9841557 0,0 2.86598,0.415347 8.37953,1.246038 5.49659,0.830694 6.64838,2.215181 10.30139,2.630527 3.64737,0.415347 12.05018,0 12.05018,0 0,0 -1.8502,2.630528 -6.78887,3.461219 -4.92359,0.830695 -7.83348,2.076734 -7.83348,2.076734 0,0 1.69879,1.938283 3.42979,3.18432 1.72253,1.24604 2.04623,2.353629 4.98438,3.184323 2.92873,0.830691 10.26902,3.32277 10.26902,3.32277 0,0 -2.81621,0.415346 -5.62802,0.830695 -2.80742,0.415346 -4.81903,0.83069 -4.81903,0.83069 l 6.11234,2.49208 -5.94978,0.553793 c 0,0 2.07435,1.107593 4.13949,2.215181 2.05592,1.10759 5.80442,2.768975 5.80442,2.768975 0,0 -2.91707,2.076734 -5.96262,1.384491 -3.05391,-0.692247 -12.22365,-3.461222 -12.22365,-3.461222 0,0 1.21932,2.353629 -0.30428,4.984156 -1.50968,2.630527 -4.53139,8.722272 -5.77249,10.660556 -1.23229,1.938283 -0.3434,3.04587 -1.54804,4.568806 -1.19772,1.522945 -4.04057,6.922447 -8.70446,7.891589 -4.64558,0.969141 -15.1687,1.522935 -15.1687,1.522935 0,0 -0.92001,-1.550027 1.11147,-0.165537 2.01997,1.384479 6.25878,0.553888 9.34904,2.492171 3.06533,1.938283 7.87395,14.865563 7.87395,14.865563 l -3.29188,2.768969 c 0,0 -0.45179,7.642498 0.0975,12.547306 0.27146,2.47555 1.39639,8.72227 0.85994,9.55296 -0.53456,0.8307 -1.38924,1.24604 -1.58896,2.21518 -0.199,0.96915 0.006,9.82987 0.54124,13.29109 0.52432,3.46121 2.95259,7.06089 2.85838,9.27606 -0.0942,2.21519 -0.34587,4.43036 -1.47545,5.12261 -1.12591,0.69224 -1.82217,2.63053 -3.64546,0.96915 -1.83835,-1.6614 -2.6801,-5.95331 -2.6801,-5.95331 l -2.17743,-0.48602 c 0,0 -2.48766,59.88207 -3.75803,59.88207 l -2.32373,0.0416 c -0.98795,0 -2.96581,-59.88831 -2.96581,-59.88831 l -5.62958,0.55379 c 0,0 -1.1185,59.51122 -2.39172,59.36819 l -2.51966,-0.0307 c -1.13414,-0.14302 -5.34194,-58.92208 -5.34194,-58.92208 l -2.76735,0.17379 c 0,0 0.58457,2.35363 -0.6179,3.59966 -1.19493,1.24605 -3.35173,2.80964 -4.16325,1.5577 -2.48871,-3.79721 -2.10175,-6.44511 -1.50845,-9.88896 0.72181,-4.09071 -1.20089,-10.91311 -0.34637,-15.89727 0.88091,-4.98416 2.22592,-8.16848 1.16881,-8.86073 -1.06025,-0.69224 -2.14884,-1.79982 -1.85731,-2.63052 0.29279,-0.83069 3.39323,-10.522113 3.39323,-10.522113 l -3.5018,-3.045871 c 0,0 0.24052,-14.537124 3.91375,-17.444549 3.7194,-2.907425 11.22998,-4.465218 11.22998,-4.465218 0,0 1.30086,0.882122 -0.0116,-0.08702 -1.31741,-0.969141 -7.5761,-0.266473 -11.95538,-3.035442 -4.42741,-2.768978 -5.79206,-3.73812 -5.79206,-3.73812 0,0 -0.39932,2.630523 -2.53969,4.015012 -2.12782,1.38449 -7.76953,2.492077 -7.76953,2.492077 0,0 1.67134,-2.215175 2.34373,-5.537947 0.68493,-3.322773 -1.78526,-8.445373 -1.78526,-8.445373 0,0 -1.60572,1.246033 -3.85358,1.522935 -2.24536,0.276892 -4.87959,0.415348 -4.87959,0.415348 0,0 1.65935,-2.492087 3.04266,-4.015022 1.39251,-1.522936 1.38513,-8.306925 0.64782,-10.106757 -0.74139,-1.799836 -2.92552,-2.215182 -2.00268,-4.984156 0.93538,-2.768978 6.53849,-9.552966 7.42543,-11.075904 0.89268,-1.522938 0.60355,-5.537952 3.04182,-8.445375 2.46685,-2.907425 8.18593,-3.184322 11.16994,-5.122605 3.00597,-1.938283 8.74223,-10.3836583 8.74223,-10.3836583 z"
         id="path20"
         sodipodi:nodetypes="ccsssscscsscscsscscccscscsssscssccsssssssccccccccccssssssccscsscscscscsssssscc"
         inkscape:path-effect="#path-effect22"
         inkscape:original-d="m 371.3082,1.8269514 0.95622,7.513156 c 0,0 5.05431,-1.775837 7.64976,-2.185645 2.59545,-0.409809 6.96675,-1.229426 8.33277,-1.229426 1.36603,0 2.04905,0.409809 3.00527,0 0.95622,-0.409808 1.50263,-0.273206 2.45885,-1.229425 0.95622,-0.95622 1.50263,-1.775837 1.50263,-1.775837 0,0 1.22942,1.912439 0.1366,3.961482 -1.09282,2.049043 -3.27847,4.9177016 -3.27847,4.9177016 0,0 1.91244,0.409809 5.60072,1.229425 3.68828,0.819618 4.50789,2.185646 6.96674,2.595454 2.45886,0.409809 8.05957,0 8.05957,0 0,0 -1.09282,2.595455 -4.37129,3.41507 -3.27847,0.819619 -5.19091,2.049045 -5.19091,2.049045 0,0 1.22943,1.91244 2.45885,3.141863 1.22943,1.229427 1.50264,2.322248 3.55168,3.141867 2.04904,0.819615 7.23995,3.278467 7.23995,3.278467 0,0 -1.91244,0.409808 -3.82488,0.819619 -1.91244,0.409808 -3.27847,0.819615 -3.27847,0.819615 l 4.37129,2.458853 -4.09808,0.546409 c 0,0 1.50263,1.092825 3.00526,2.185646 1.50263,1.092822 4.23469,2.732056 4.23469,2.732056 0,0 -1.91244,2.049045 -4.09809,1.366031 -2.18564,-0.683017 -8.74258,-3.415073 -8.74258,-3.415073 0,0 0.95622,2.322248 0,4.917702 -0.95622,2.595454 -2.86866,8.605978 -3.68828,10.518418 -0.81961,1.91244 -0.1366,3.00526 -0.95622,4.50789 -0.81961,1.50264 -2.73205,6.83015 -6.14712,7.78637 -3.41507,0.95622 -11.20144,1.50263 -11.20144,1.50263 0,0 -0.67958,-1.52936 0.82305,-0.16333 1.50263,1.36602 4.64107,0.546503 6.96332,2.458943 2.32224,1.91244 6.29402,14.66736 6.29402,14.66736 l -2.45885,2.73205 c 0,0 -0.16062,7.5406 0.39951,12.380011 0.28271,2.442541 1.36603,8.605981 0.95622,9.425591 -0.40981,0.81962 -1.09282,1.22943 -1.22942,2.18565 -0.13661,0.95622 0.2732,9.6988 0.81961,13.11387 0.54642,3.41507 2.73206,6.96675 2.73206,9.15239 0,2.18565 -0.1366,4.37129 -1.09282,5.05431 -0.95622,0.68301 -1.50263,2.59545 -3.14187,0.95622 -1.63923,-1.63924 -2.45885,-5.87393 -2.45885,-5.87393 l -1.87757,-0.47954 c 0,0 -1.36108,59.08366 -2.63118,59.08366 l -2.32303,0.041 c -0.98786,0 -2.8059,-59.08982 -2.8059,-59.08982 l -4.83647,0.54641 c 0,0 -2.07446,58.71775 -3.34456,58.57663 l -2.51867,-0.0303 c -1.12898,-0.14112 -2.95771,-58.13647 -2.95771,-58.13647 l -2.38624,0.17147 c 0,0 0.40981,2.32225 -0.68302,3.55167 -1.09282,1.22943 -3.0476,2.77217 -3.6917,1.53693 -1.95361,-3.74658 -1.47519,-6.35918 -0.78531,-9.75711 0.81945,-4.03617 -0.44069,-10.76761 0.51553,-15.68531 0.95622,-4.91771 2.18565,-8.05957 1.36603,-8.74259 -0.81962,-0.68301 -1.63923,-1.77583 -1.36603,-2.59545 0.27321,-0.81962 3.14187,-10.381822 3.14187,-10.381822 l -2.59546,-3.00526 c 0,0 0.81962,-14.3433 3.68828,-17.21196 2.86866,-2.86866 8.47967,-4.405683 8.47967,-4.405683 0,0 0.94935,0.87036 -0.007,-0.08586 -0.95622,-0.95622 -5.60414,-0.26292 -8.74601,-2.99497 -3.14186,-2.73206 -4.09808,-3.68828 -4.09808,-3.68828 0,0 -0.40981,2.59545 -2.04904,3.96148 -1.63924,1.36603 -5.87393,2.45885 -5.87393,2.45885 0,0 1.36603,-2.18564 2.04905,-5.46411 0.68301,-3.27847 -0.81962,-8.33277 -0.81962,-8.33277 0,0 -1.22943,1.22942 -2.86866,1.50263 -1.63923,0.2732 -3.55167,0.40981 -3.55167,0.40981 0,0 1.36603,-2.45886 2.45885,-3.96149 1.09282,-1.50263 1.50263,-8.196168 1.09282,-9.972003 -0.40981,-1.775839 -1.91244,-2.185647 -1.09282,-4.917702 0.81961,-2.732059 5.0543,-9.425596 5.73732,-10.928228 0.68301,-1.502633 0.68301,-5.464115 2.45885,-8.332773 1.77584,-2.86866 5.60071,-3.141865 7.64976,-5.054305 2.04904,-1.91244 6.01052,-10.2452126 6.01052,-10.2452126 z"
         transform="matrix(1,0,0,1.0749183,0,-11.166358)" /><ellipse
         style="fill:#fdfdfd;fill-opacity:1;stroke:none;stroke-width:0.405145;stroke-opacity:1"
         id="ellipse20"
         cx="402.64459"
         cy="5.2084308"
         rx="4.3844724"
         ry="2.6654046"
         transform="matrix(0.99638142,0.08499452,-0.07242043,0.99737419,0,0)" /><ellipse
         style="fill:#fdfdfd;fill-opacity:1;stroke:none;stroke-width:0.405145;stroke-opacity:1"
         id="ellipse21"
         cx="382.44968"
         cy="4.9386444"
         rx="4.3844724"
         ry="2.6654046"
         transform="matrix(0.99638142,0.08499452,-0.07242043,0.99737419,0,0)" /></g><rect
       style="fill:#582e00;fill-opacity:1;stroke:none;stroke-width:0.564148;stroke-dasharray:none;stroke-opacity:1"
       id="rect23"
       width="15.525645"
       height="17.927471"
       x="133.61305"
       y="206.92299"
       transform="matrix(0.8660254,-0.5,0.8660254,0.5,0,0)" /><rect
       style="fill:#582e00;fill-opacity:1;stroke:none;stroke-width:0.564148;stroke-dasharray:none;stroke-opacity:1"
       id="rect24"
       width="15.525645"
       height="17.927471"
       x="230.00818"
       y="310.06839"
       transform="matrix(0.8660254,-0.5,0.8660254,0.5,0,0)" /><rect
       style="fill:#582e00;fill-opacity:1;stroke:none;stroke-width:0.564148;stroke-dasharray:none;stroke-opacity:1"
       id="rect25"
       width="15.525645"
       height="17.927471"
       x="195.06511"
       y="281.87558"
       transform="matrix(0.8660254,-0.5,0.8660254,0.5,0,0)" /></g></svg>
